<?xml version="1.0" encoding="UTF-8" standalone="no"?>
<svg width="41px" height="41px" viewBox="0 0 41 41" version="1.1" xmlns="http://www.w3.org/2000/svg" xmlns:xlink="http://www.w3.org/1999/xlink" xmlns:sketch="http://www.bohemiancoding.com/sketch/ns">
    <!-- Generator: Sketch 3.3.3 (12072) - http://www.bohemiancoding.com/sketch -->
    <title>2</title>
    <desc>Created with Sketch.</desc>
    <defs></defs>
    <g id="Site" stroke="none" stroke-width="1" fill="none" fill-rule="evenodd" sketch:type="MSPage">
        <g id="Campaign" sketch:type="MSArtboardGroup" transform="translate(-404.000000, -1293.000000)">
            <g id="2" sketch:type="MSLayerGroup" transform="translate(405.000000, 1294.000000)">
                <circle id="Oval-43-Copy" stroke="#2196F3" sketch:type="MSShapeGroup" cx="19.5" cy="19.5" r="19.5"></circle>
                <path d="M15.1416016,27.5 L15.1416016,26.4013672 C15.1416016,25.5143185 15.3959122,24.7249384 15.904541,24.0332031 C16.4131699,23.3414679 17.0336877,22.6904327 17.7661133,22.0800781 C18.0509454,21.8277982 18.3459457,21.5795911 18.651123,21.3354492 C18.9563004,21.0913074 19.2594386,20.8471692 19.5605469,20.6030273 C20.0732448,20.1879862 20.5594866,19.7709168 21.0192871,19.3518066 C21.4790876,18.9326965 21.8798811,18.5115581 22.2216797,18.0883789 C22.5634783,17.6651997 22.8340648,17.2277855 23.0334473,16.776123 C23.2328298,16.3244606 23.3325195,15.8504257 23.3325195,15.3540039 C23.3325195,14.9552389 23.267416,14.5808937 23.137207,14.230957 C23.006998,13.8810204 22.8035496,13.5717787 22.5268555,13.3032227 C22.2501614,13.0346666 21.904299,12.8210457 21.4892578,12.6623535 C21.0742167,12.5036613 20.5818713,12.4243164 20.012207,12.4243164 C19.4425427,12.4243164 18.9542664,12.4914544 18.5473633,12.6257324 C18.1404602,12.7600104 17.7864598,12.9268382 17.4853516,13.1262207 C17.1842433,13.3256032 16.9258637,13.5453276 16.7102051,13.7854004 C16.4945464,14.0254732 16.3053394,14.25537 16.1425781,14.4750977 L15.2392578,13.8525391 C15.3857429,13.6002592 15.5891914,13.3276382 15.8496094,13.034668 C16.1100273,12.7416978 16.431476,12.4670423 16.8139648,12.2106934 C17.1964537,11.9543444 17.6501439,11.738689 18.1750488,11.5637207 C18.6999538,11.3887524 19.3041958,11.3012695 19.987793,11.3012695 C20.7527708,11.3012695 21.4282197,11.4090972 22.0141602,11.6247559 C22.6001006,11.8404145 23.088377,12.1313458 23.4790039,12.4975586 C23.8696309,12.8637714 24.1605622,13.2930477 24.3518066,13.7854004 C24.5430511,14.2777531 24.6386719,14.8087537 24.6386719,15.378418 C24.6386719,16.0294629 24.5267752,16.621498 24.3029785,17.154541 C24.0791818,17.687584 23.7801125,18.1819639 23.4057617,18.6376953 C23.0314109,19.0934268 22.6062036,19.530841 22.130127,19.9499512 C21.6540504,20.3690613 21.1556016,20.7861307 20.6347656,21.2011719 C20.2034484,21.5511085 19.8046893,21.8725571 19.4384766,22.1655273 C19.0722638,22.4584976 18.7304703,22.7433254 18.4130859,23.0200195 C17.7783171,23.5734077 17.2941097,24.1044083 16.9604492,24.6130371 C16.6267887,25.121666 16.4599609,25.7096321 16.4599609,26.3769531 L24.8828125,26.3769531 L24.8828125,27.5 L15.1416016,27.5 Z" id="2-copy" fill="#2196F3" sketch:type="MSShapeGroup"></path>
            </g>
        </g>
    </g>
</svg>