<?xml version="1.0" encoding="UTF-8" standalone="no"?>
<svg width="41px" height="41px" viewBox="0 0 41 41" version="1.1" xmlns="http://www.w3.org/2000/svg" xmlns:xlink="http://www.w3.org/1999/xlink" xmlns:sketch="http://www.bohemiancoding.com/sketch/ns">
    <!-- Generator: Sketch 3.3.3 (12072) - http://www.bohemiancoding.com/sketch -->
    <title>3</title>
    <desc>Created with Sketch.</desc>
    <defs></defs>
    <g id="Site" stroke="none" stroke-width="1" fill="none" fill-rule="evenodd" sketch:type="MSPage">
        <g id="Campaign" sketch:type="MSArtboardGroup" transform="translate(-404.000000, -1414.000000)">
            <g id="3" sketch:type="MSLayerGroup" transform="translate(405.000000, 1415.000000)">
                <circle id="Oval-43-Copy-2" stroke="#2196F3" sketch:type="MSShapeGroup" cx="19.5" cy="19.5" r="19.5"></circle>
                <path d="M14.5922852,26.2548828 L15.3369141,25.3027344 C15.4996753,25.4329434 15.6949858,25.5814608 15.9228516,25.748291 C16.1507173,25.9151213 16.4274072,26.0738111 16.7529297,26.2243652 C17.0784521,26.3749194 17.4527974,26.5051264 17.8759766,26.6149902 C18.2991558,26.7248541 18.803708,26.7797852 19.3896484,26.7797852 C20.6754622,26.7797852 21.6845667,26.4379917 22.4169922,25.7543945 C23.1494177,25.0707974 23.515625,24.1349343 23.515625,22.9467773 C23.515625,22.3120085 23.4200042,21.7708356 23.2287598,21.3232422 C23.0375153,20.8756488 22.7750668,20.5094415 22.4414062,20.2246094 C22.1077457,19.9397772 21.7191591,19.7302253 21.2756348,19.5959473 C20.8321104,19.4616693 20.3540065,19.3945312 19.8413086,19.3945312 C19.4425436,19.3945312 19.112957,19.4250485 18.8525391,19.486084 C18.5921211,19.5471194 18.3195001,19.6183264 18.034668,19.699707 L17.5585938,18.8696289 L22.6367188,12.8027344 L15.715332,12.8027344 L15.715332,11.7041016 L24.1625977,11.7041016 L24.1625977,12.7783203 L19.2675781,18.4545898 C19.3977871,18.4220376 19.5340976,18.3955893 19.6765137,18.3752441 C19.8189297,18.354899 19.9552402,18.3447266 20.0854492,18.3447266 C20.7527703,18.3447266 21.3732881,18.4505198 21.9470215,18.6621094 C22.5207548,18.873699 23.0131002,19.1748027 23.4240723,19.5654297 C23.8350444,19.9560566 24.156493,20.4341606 24.3884277,20.9997559 C24.6203625,21.5653511 24.7363281,22.2143518 24.7363281,22.9467773 C24.7363281,23.7768596 24.5959487,24.5011362 24.3151855,25.1196289 C24.0344224,25.7381216 23.6438013,26.2569152 23.1433105,26.6760254 C22.6428198,27.0951356 22.0629916,27.4043773 21.4038086,27.6037598 C20.7446256,27.8031423 20.0406938,27.902832 19.2919922,27.902832 C18.608395,27.902832 18.012291,27.839763 17.5036621,27.713623 C16.9950333,27.5874831 16.55355,27.4369312 16.1791992,27.2619629 C15.8048484,27.0869946 15.4874687,26.9079599 15.2270508,26.7248535 C14.9666328,26.5417471 14.7550464,26.3850918 14.5922852,26.2548828 L14.5922852,26.2548828 Z" id="3-copy" fill="#2196F3" sketch:type="MSShapeGroup"></path>
            </g>
        </g>
    </g>
</svg>