<?xml version="1.0" encoding="UTF-8" standalone="no"?>
<svg width="107px" height="22px" viewBox="0 0 107 22" version="1.1" xmlns="http://www.w3.org/2000/svg" xmlns:xlink="http://www.w3.org/1999/xlink" xmlns:sketch="http://www.bohemiancoding.com/sketch/ns">
    <!-- Generator: Sketch 3.3.3 (12072) - http://www.bohemiancoding.com/sketch -->
    <title>Circly Logo</title>
    <desc>Created with Sketch.</desc>
    <defs></defs>
    <g id="Site" stroke="none" stroke-width="1" fill="none" fill-rule="evenodd" sketch:type="MSPage">
        <g id="Home" sketch:type="MSArtboardGroup" transform="translate(-128.000000, -25.000000)">
            <g id="Circly-Logo" sketch:type="MSLayerGroup" transform="translate(130.000000, 26.000000)">
                <path d="M14.5726559,15.9612322 C11.2584557,19.2481517 5.88503018,19.2481517 2.57082998,15.9612322 C-0.743370221,12.6743128 -0.743370221,7.34511848 2.57082998,4.05819905 C5.88503018,0.771279621 11.2584557,0.771279621 14.5726559,4.05819905" id="Shape" stroke="#FFFFFF" stroke-width="3.79146919" sketch:type="MSShapeGroup"></path>
                <ellipse id="Oval" fill="#FFFFFF" sketch:type="MSShapeGroup" cx="8.57179074" cy="10.009763" rx="1.93125252" ry="1.91535545"></ellipse>
                <path d="M66.4979879,15.9612322 C63.1837877,19.2481517 57.8103622,19.2481517 54.496162,15.9612322 C51.1819618,12.6743128 51.1819618,7.34511848 54.496162,4.05819905 C57.8103622,0.771279621 63.1837877,0.771279621 66.4979879,4.05819905" id="Shape" stroke="#FFFFFF" stroke-width="3.79146919" sketch:type="MSShapeGroup"></path>
                <ellipse id="Oval" fill="#FFFFFF" sketch:type="MSShapeGroup" cx="60.4970272" cy="10.009763" rx="1.93125252" ry="1.91535545"></ellipse>
                <path d="M21.2608199,19.9676777 L21.2608199,0.0517535545 L25.2260664,0.0517535545 L25.2260664,19.9676777 L21.2608199,19.9676777 L21.2608199,19.9676777 Z" id="Shape" fill="#FFFFFF" sketch:type="MSShapeGroup"></path>
                <path d="M37.7903722,12.2990521 L35.7510262,12.2990521 L35.7510262,19.9676777 L31.8140694,19.9676777 L31.8140694,0.0517535545 L39.6595976,0.0517535545 C40.6412324,0.0517535545 41.5241398,0.211184834 42.3078421,0.5292891 C43.091162,0.847962085 43.7616097,1.2785782 44.3188028,1.8214218 C44.8755181,2.36483412 45.3052163,3.01090047 45.6075151,3.75971564 C45.9094316,4.50890995 46.0606288,5.3143128 46.0606288,6.17545024 C46.0606288,7.58 45.6782394,8.77867299 44.9135563,9.77099526 C44.1488732,10.7637915 43.1053068,11.4472038 41.7839085,11.8216114 L46.0890141,19.9676777 L41.7272334,19.9676777 L37.7903722,12.2990521 L37.7903722,12.2990521 Z M38.9232042,8.9563981 C39.9238581,8.9563981 40.6978119,8.7036019 41.2457344,8.19800948 C41.7931791,7.69241706 42.0670926,7.0278673 42.0670926,6.2036019 C42.0670926,5.36085308 41.7931791,4.68672986 41.2457344,4.18104265 C40.6978119,3.67545024 39.9238581,3.42265403 38.9232042,3.42265403 L35.7510262,3.42265403 L35.7510262,8.9563981 L38.9232042,8.9563981 L38.9232042,8.9563981 Z" id="Shape" fill="#FFFFFF" sketch:type="MSShapeGroup"></path>
                <path d="M73.1756388,19.9676777 L73.1756388,0.0517535545 L77.0843058,0.0517535545 L77.0843058,16.2597156 L86.0343763,16.2597156 L86.0343763,19.9676777 L73.1756388,19.9676777 L73.1756388,19.9676777 Z" id="Shape" fill="#FFFFFF" sketch:type="MSShapeGroup"></path>
                <path d="M87.0147032,0.0517535545 L91.6030885,0.0517535545 L96.1064135,7.94511848 L100.609834,0.0517535545 L105,0.0517535545 L97.9192505,11.5967773 L97.9192505,19.9676777 L94.0106791,19.9676777 L94.0106791,11.5967773 L87.0147032,0.0517535545 L87.0147032,0.0517535545 Z" id="Shape" fill="#FFFFFF" sketch:type="MSShapeGroup"></path>
            </g>
        </g>
    </g>
</svg>