<?xml version="1.0" encoding="UTF-8" standalone="no"?>
<svg width="60px" height="52px" viewBox="0 0 60 52" version="1.1" xmlns="http://www.w3.org/2000/svg" xmlns:xlink="http://www.w3.org/1999/xlink" xmlns:sketch="http://www.bohemiancoding.com/sketch/ns">
    <!-- Generator: Sketch 3.3.3 (12072) - http://www.bohemiancoding.com/sketch -->
    <title>76 - Safebox (Webby)</title>
    <desc>Created with Sketch.</desc>
    <defs></defs>
    <g id="Site" stroke="none" stroke-width="1" fill="none" fill-rule="evenodd" sketch:type="MSPage">
        <g id="Home" sketch:type="MSArtboardGroup" transform="translate(-820.000000, -649.000000)">
            <g id="76---Safebox-(Webby)" sketch:type="MSLayerGroup" transform="translate(821.000000, 650.000000)">
                <g id="Page-1" sketch:type="MSShapeGroup">
                    <g id="76---Safebox-(Webby)">
                        <path d="M2,46 L10,46 L10,50 L2,50 L2,46 L2,46 Z" id="Fill-181" fill="#FFFFFF"></path>
                        <path d="M2,46 L10,46 L10,50 L2,50 L2,46 L2,46 Z" id="Stroke-182" stroke="#0096E6" stroke-width="2"></path>
                        <path d="M48,46 L56,46 L56,50 L48,50 L48,46 L48,46 Z" id="Fill-183" fill="#FFFFFF"></path>
                        <path d="M48,46 L56,46 L56,50 L48,50 L48,46 L48,46 Z" id="Stroke-184" stroke="#0096E6" stroke-width="2"></path>
                        <path d="M0,0 L58,0 L58,46 L0,46 L0,0 L0,0 Z" id="Fill-185" fill="#D0E8F9"></path>
                        <path d="M0,0 L58,0 L58,46 L0,46 L0,0 L0,0 Z" id="Stroke-186" stroke="#0096E6" stroke-width="2"></path>
                        <path d="M50,8 L58,8 L58,12 L50,12 L50,8 L50,8 Z" id="Fill-192" fill="#FFFFFF"></path>
                        <path d="M50,8 L58,8 L58,12 L50,12 L50,8 L50,8 Z" id="Stroke-193" stroke="#0096E6" stroke-width="2"></path>
                        <path d="M50,34 L58,34 L58,38 L50,38 L50,34 L50,34 Z" id="Fill-194" fill="#FFFFFF"></path>
                        <path d="M50,34 L58,34 L58,38 L50,38 L50,34 L50,34 Z" id="Stroke-195" stroke="#0096E6" stroke-width="2"></path>
                        <path d="M50,38 L50,34 L54,34 L54,12 L50,12 L50,8 L54,8 L54,5.008 C54,4.451 53.549,4 52.992,4 L5.008,4 C4.451,4 4,4.451 4,5.008 L4,40.992 C4,41.548 4.451,42 5.008,42 L52.992,42 C53.549,42 54,41.548 54,40.992 L54,38 L50,38 L50,38 Z" id="Fill-196" fill="#FFFFFF"></path>
                        <path d="M50,38 L50,34 L54,34 L54,12 L50,12 L50,8 L54,8 L54,5.008 C54,4.451 53.549,4 52.992,4 L5.008,4 C4.451,4 4,4.451 4,5.008 L4,40.992 C4,41.548 4.451,42 5.008,42 L52.992,42 C53.549,42 54,41.548 54,40.992 L54,38 L50,38 L50,38 Z" id="Stroke-197" stroke="#0096E6" stroke-width="2"></path>
                        <path d="M25,23 C25,26.314 22.314,29 19,29 C15.686,29 13,26.314 13,23 C13,19.686 15.686,17 19,17 C22.314,17 25,19.686 25,23 L25,23 L25,23 Z" id="Fill-198" fill="#D0E8F9"></path>
                        <path d="M25,23 C25,26.314 22.314,29 19,29 C15.686,29 13,26.314 13,23 C13,19.686 15.686,17 19,17 C22.314,17 25,19.686 25,23 L25,23 L25,23 Z" id="Stroke-199" stroke="#0096E6" stroke-width="2"></path>
                        <path d="M8,23 L13,23 M25,23 L30,23 M19,12 L19,17 M19,29 L19,34 M11.222,15.222 L14.757,18.757 M23.243,27.242 L26.778,30.778 M26.778,15.222 L23.243,18.757 M14.757,27.242 L11.222,30.778 M36,24 L36,25 M41,24 L41,25 M46,24 L46,25 M36,28 L36,29 M41,28 L41,29 M46,28 L46,29 M36,32 L36,33 M41,32 L41,33 M46,32 L46,33" id="Stroke-200" stroke="#0096E6" stroke-width="2"></path>
                        <path d="M35,15 L47,15 L47,19 L35,19 L35,15 L35,15 Z" id="Fill-277" fill="#D0E8F9"></path>
                        <path d="M35,15 L47,15 L47,19 L35,19 L35,15 L35,15 Z" id="Stroke-278" stroke="#0096E6" stroke-width="2"></path>
                        <path d="M20,23 C20,23.552 19.552,24 19,24 C18.448,24 18,23.552 18,23 C18,22.448 18.448,22 19,22 C19.552,22 20,22.448 20,23" id="Fill-321" fill="#0096E6"></path>
                    </g>
                </g>
            </g>
        </g>
    </g>
</svg>